<svg width="215" height="22" viewBox="0 0 215 22" fill="none" xmlns="http://www.w3.org/2000/svg">
<path d="M1.58523 18V4.90909H6.00852C7.03551 4.90909 7.875 5.09446 8.52699 5.4652C9.18324 5.83168 9.66903 6.32812 9.98438 6.95455C10.2997 7.58097 10.4574 8.27983 10.4574 9.05114C10.4574 9.82244 10.2997 10.5234 9.98438 11.1541C9.6733 11.7848 9.19176 12.2876 8.53977 12.6626C7.88778 13.0334 7.05256 13.2188 6.03409 13.2188H2.86364V11.8125H5.98295C6.68608 11.8125 7.25071 11.6911 7.67685 11.4482C8.10298 11.2053 8.41193 10.8771 8.60369 10.4638C8.79972 10.0462 8.89773 9.57528 8.89773 9.05114C8.89773 8.52699 8.79972 8.05824 8.60369 7.64489C8.41193 7.23153 8.10085 6.90767 7.67045 6.6733C7.24006 6.43466 6.66903 6.31534 5.95739 6.31534H3.17045V18H1.58523ZM19.761 10.3807L18.4059 10.7642C18.3207 10.5384 18.195 10.3189 18.0288 10.1058C17.8668 9.88849 17.6452 9.70952 17.364 9.56889C17.0827 9.42827 16.7227 9.35795 16.2837 9.35795C15.6829 9.35795 15.1822 9.49645 14.7816 9.77344C14.3853 10.0462 14.1871 10.3935 14.1871 10.8153C14.1871 11.1903 14.3235 11.4865 14.5962 11.7038C14.869 11.9212 15.2951 12.1023 15.8746 12.2472L17.332 12.6051C18.2099 12.8182 18.864 13.1442 19.2944 13.5831C19.7248 14.0178 19.94 14.5781 19.94 15.2642C19.94 15.8267 19.7781 16.3295 19.4542 16.7727C19.1346 17.2159 18.6871 17.5653 18.1119 17.821C17.5366 18.0767 16.8675 18.2045 16.1048 18.2045C15.1033 18.2045 14.2745 17.9872 13.6183 17.5526C12.962 17.1179 12.5465 16.483 12.3718 15.6477L13.8036 15.2898C13.94 15.8182 14.1978 16.2145 14.5771 16.4787C14.9606 16.7429 15.4613 16.875 16.0792 16.875C16.7823 16.875 17.3406 16.7259 17.7539 16.4276C18.1715 16.125 18.3803 15.7628 18.3803 15.3409C18.3803 15 18.261 14.7145 18.0224 14.4844C17.7837 14.25 17.4173 14.0753 16.9229 13.9602L15.2866 13.5767C14.3874 13.3636 13.7269 13.0334 13.305 12.5859C12.8874 12.1342 12.6786 11.5696 12.6786 10.892C12.6786 10.3381 12.8342 9.84801 13.1452 9.42188C13.4606 8.99574 13.8888 8.66122 14.43 8.41832C14.9755 8.17543 15.5934 8.05398 16.2837 8.05398C17.2553 8.05398 18.0181 8.26705 18.5721 8.69318C19.1303 9.11932 19.5266 9.68182 19.761 10.3807ZM22.2108 18V8.18182H23.7193V18H22.2108ZM22.9778 6.54545C22.6838 6.54545 22.4302 6.44531 22.2172 6.24503C22.0083 6.04474 21.9039 5.80398 21.9039 5.52273C21.9039 5.24148 22.0083 5.00071 22.2172 4.80043C22.4302 4.60014 22.6838 4.5 22.9778 4.5C23.2718 4.5 23.5233 4.60014 23.7321 4.80043C23.9451 5.00071 24.0517 5.24148 24.0517 5.52273C24.0517 5.80398 23.9451 6.04474 23.7321 6.24503C23.5233 6.44531 23.2718 6.54545 22.9778 6.54545ZM30.4709 18.2045C29.5504 18.2045 28.7578 17.9872 28.093 17.5526C27.4283 17.1179 26.9169 16.5192 26.5589 15.7564C26.201 14.9936 26.022 14.1222 26.022 13.142C26.022 12.1449 26.2053 11.2649 26.5717 10.5021C26.9425 9.73509 27.4581 9.13636 28.1186 8.70597C28.7834 8.27131 29.5589 8.05398 30.4453 8.05398C31.1357 8.05398 31.7578 8.18182 32.3118 8.4375C32.8658 8.69318 33.3196 9.05114 33.6733 9.51136C34.027 9.97159 34.2464 10.5085 34.3317 11.1222H32.8232C32.7081 10.6747 32.4524 10.2784 32.0561 9.93324C31.6641 9.58381 31.1357 9.40909 30.4709 9.40909C29.8828 9.40909 29.3672 9.5625 28.924 9.86932C28.4851 10.1719 28.142 10.6001 27.8949 11.1541C27.652 11.7038 27.5305 12.3494 27.5305 13.0909C27.5305 13.8494 27.6499 14.5099 27.8885 15.0724C28.1314 15.6349 28.4723 16.0717 28.9112 16.3828C29.3544 16.6939 29.8743 16.8494 30.4709 16.8494C30.8629 16.8494 31.2188 16.7812 31.5384 16.6449C31.858 16.5085 32.1286 16.3125 32.3501 16.0568C32.5717 15.8011 32.7294 15.4943 32.8232 15.1364H34.3317C34.2464 15.7159 34.0355 16.2379 33.6989 16.7024C33.3665 17.1626 32.9254 17.5291 32.3757 17.8018C31.8303 18.0703 31.1953 18.2045 30.4709 18.2045ZM40.5256 18.2045C39.6392 18.2045 38.8615 17.9936 38.1925 17.5717C37.5277 17.1499 37.0078 16.5597 36.6328 15.8011C36.2621 15.0426 36.0767 14.1562 36.0767 13.142C36.0767 12.1193 36.2621 11.2266 36.6328 10.4638C37.0078 9.70099 37.5277 9.10866 38.1925 8.68679C38.8615 8.26491 39.6392 8.05398 40.5256 8.05398C41.4119 8.05398 42.1875 8.26491 42.8523 8.68679C43.5213 9.10866 44.0412 9.70099 44.4119 10.4638C44.7869 11.2266 44.9744 12.1193 44.9744 13.142C44.9744 14.1562 44.7869 15.0426 44.4119 15.8011C44.0412 16.5597 43.5213 17.1499 42.8523 17.5717C42.1875 17.9936 41.4119 18.2045 40.5256 18.2045ZM40.5256 16.8494C41.1989 16.8494 41.7528 16.6768 42.1875 16.3317C42.6222 15.9865 42.9439 15.5327 43.1527 14.9702C43.3615 14.4077 43.4659 13.7983 43.4659 13.142C43.4659 12.4858 43.3615 11.8743 43.1527 11.3075C42.9439 10.7408 42.6222 10.2827 42.1875 9.93324C41.7528 9.58381 41.1989 9.40909 40.5256 9.40909C39.8523 9.40909 39.2983 9.58381 38.8636 9.93324C38.429 10.2827 38.1072 10.7408 37.8984 11.3075C37.6896 11.8743 37.5852 12.4858 37.5852 13.142C37.5852 13.7983 37.6896 14.4077 37.8984 14.9702C38.1072 15.5327 38.429 15.9865 38.8636 16.3317C39.2983 16.6768 39.8523 16.8494 40.5256 16.8494ZM39.8352 6.85227L41.3949 3.88636H43.1591L41.1648 6.85227H39.8352ZM48.7857 4.90909V18H47.2772V4.90909H48.7857ZM55.5373 18.2045C54.6509 18.2045 53.8732 17.9936 53.2042 17.5717C52.5394 17.1499 52.0195 16.5597 51.6445 15.8011C51.2738 15.0426 51.0884 14.1562 51.0884 13.142C51.0884 12.1193 51.2738 11.2266 51.6445 10.4638C52.0195 9.70099 52.5394 9.10866 53.2042 8.68679C53.8732 8.26491 54.6509 8.05398 55.5373 8.05398C56.4237 8.05398 57.1992 8.26491 57.864 8.68679C58.533 9.10866 59.0529 9.70099 59.4237 10.4638C59.7987 11.2266 59.9862 12.1193 59.9862 13.142C59.9862 14.1562 59.7987 15.0426 59.4237 15.8011C59.0529 16.5597 58.533 17.1499 57.864 17.5717C57.1992 17.9936 56.4237 18.2045 55.5373 18.2045ZM55.5373 16.8494C56.2106 16.8494 56.7646 16.6768 57.1992 16.3317C57.6339 15.9865 57.9556 15.5327 58.1644 14.9702C58.3732 14.4077 58.4776 13.7983 58.4776 13.142C58.4776 12.4858 58.3732 11.8743 58.1644 11.3075C57.9556 10.7408 57.6339 10.2827 57.1992 9.93324C56.7646 9.58381 56.2106 9.40909 55.5373 9.40909C54.864 9.40909 54.31 9.58381 53.8754 9.93324C53.4407 10.2827 53.119 10.7408 52.9102 11.3075C52.7013 11.8743 52.5969 12.4858 52.5969 13.142C52.5969 13.7983 52.7013 14.4077 52.9102 14.9702C53.119 15.5327 53.4407 15.9865 53.8754 16.3317C54.31 16.6768 54.864 16.8494 55.5373 16.8494ZM66.252 21.8864C65.5233 21.8864 64.8968 21.7926 64.3727 21.6051C63.8485 21.4219 63.4118 21.179 63.0623 20.8764C62.7172 20.5781 62.4423 20.2585 62.2377 19.9176L63.4395 19.0739C63.5758 19.2528 63.7484 19.4574 63.9572 19.6875C64.166 19.9219 64.4515 20.1243 64.8137 20.2947C65.1802 20.4695 65.6596 20.5568 66.252 20.5568C67.0446 20.5568 67.6987 20.3651 68.2143 19.9815C68.7299 19.598 68.9877 18.9972 68.9877 18.179V16.1847H68.8599C68.7491 16.3636 68.5914 16.5852 68.3869 16.8494C68.1866 17.1094 67.8968 17.3416 67.5176 17.5462C67.1426 17.7464 66.6355 17.8466 65.9963 17.8466C65.2037 17.8466 64.492 17.6591 63.8613 17.2841C63.2349 16.9091 62.7385 16.3636 62.372 15.6477C62.0098 14.9318 61.8287 14.0625 61.8287 13.0398C61.8287 12.0341 62.0055 11.1584 62.3592 10.4126C62.7129 9.66264 63.2051 9.0831 63.8358 8.67401C64.4664 8.26065 65.1951 8.05398 66.0218 8.05398C66.661 8.05398 67.1681 8.16051 67.5431 8.37358C67.9224 8.58239 68.2122 8.82102 68.4125 9.08949C68.617 9.35369 68.7747 9.57102 68.8855 9.74148H69.0389V8.18182H70.4963V18.2812C70.4963 19.125 70.3045 19.8111 69.921 20.3395C69.5417 20.8722 69.0304 21.2621 68.3869 21.5092C67.7477 21.7607 67.036 21.8864 66.252 21.8864ZM66.2008 16.4915C66.8059 16.4915 67.3173 16.353 67.7349 16.076C68.1525 15.799 68.47 15.4006 68.6873 14.8807C68.9047 14.3608 69.0133 13.7386 69.0133 13.0142C69.0133 12.3068 68.9068 11.6825 68.6937 11.1413C68.4806 10.6001 68.1653 10.1761 67.7477 9.86932C67.3301 9.5625 66.8145 9.40909 66.2008 9.40909C65.5616 9.40909 65.0289 9.57102 64.6028 9.89489C64.1809 10.2187 63.8635 10.6534 63.6504 11.1989C63.4416 11.7443 63.3372 12.3494 63.3372 13.0142C63.3372 13.696 63.4437 14.299 63.6568 14.8232C63.8741 15.343 64.1937 15.7521 64.6156 16.0504C65.0417 16.3445 65.5701 16.4915 66.2008 16.4915ZM76.1468 18.2301C75.5247 18.2301 74.96 18.1129 74.4529 17.8786C73.9458 17.6399 73.5431 17.2969 73.2449 16.8494C72.9466 16.3977 72.7974 15.8523 72.7974 15.2131C72.7974 14.6506 72.9082 14.1946 73.1298 13.8452C73.3514 13.4915 73.6475 13.2145 74.0183 13.0142C74.389 12.8139 74.7981 12.6648 75.2456 12.5668C75.6973 12.4645 76.1511 12.3835 76.6071 12.3239C77.2037 12.2472 77.6873 12.1896 78.0581 12.1513C78.4331 12.1087 78.7058 12.0384 78.8762 11.9403C79.051 11.8423 79.1383 11.6719 79.1383 11.429V11.3778C79.1383 10.7472 78.9657 10.2571 78.6206 9.90767C78.2797 9.55824 77.7619 9.38352 77.0673 9.38352C76.3471 9.38352 75.7825 9.54119 75.3734 9.85653C74.9643 10.1719 74.6767 10.5085 74.5105 10.8665L73.0787 10.3551C73.3343 9.75852 73.6752 9.29403 74.1014 8.96165C74.5318 8.625 75.0005 8.39062 75.5076 8.25852C76.019 8.12216 76.5218 8.05398 77.0162 8.05398C77.3315 8.05398 77.6937 8.09233 78.1028 8.16903C78.5162 8.24148 78.9146 8.39276 79.2981 8.62287C79.6859 8.85298 80.0076 9.20028 80.2633 9.66477C80.519 10.1293 80.6468 10.7514 80.6468 11.5312V18H79.1383V16.6705H79.0616C78.9593 16.8835 78.7889 17.1115 78.5502 17.3544C78.3116 17.5973 77.9941 17.804 77.5978 17.9744C77.2015 18.1449 76.7179 18.2301 76.1468 18.2301ZM76.377 16.875C76.9735 16.875 77.4764 16.7578 77.8855 16.5234C78.2988 16.2891 78.6099 15.9865 78.8187 15.6158C79.0318 15.245 79.1383 14.8551 79.1383 14.446V13.0653C79.0744 13.142 78.9338 13.2124 78.7164 13.2763C78.5034 13.3359 78.2562 13.3892 77.975 13.4361C77.698 13.4787 77.4274 13.517 77.1632 13.5511C76.9032 13.581 76.6923 13.6065 76.5304 13.6278C76.1383 13.679 75.7718 13.7621 75.4309 13.8771C75.0943 13.9879 74.8216 14.1562 74.6127 14.3821C74.4082 14.6037 74.3059 14.9062 74.3059 15.2898C74.3059 15.8139 74.4998 16.2102 74.8876 16.4787C75.2797 16.7429 75.7761 16.875 76.377 16.875ZM88.3732 18V4.90909H93.2823C94.288 4.90909 95.1317 5.08381 95.8136 5.43324C96.4996 5.78267 97.0174 6.27273 97.3668 6.90341C97.7205 7.52983 97.8974 8.26065 97.8974 9.09588C97.8974 9.93537 97.7184 10.6641 97.3604 11.282C97.0067 11.8956 96.4847 12.3707 95.7944 12.7074C95.104 13.0398 94.256 13.206 93.2504 13.206H89.7539V11.2372H92.9308C93.5188 11.2372 94.0004 11.1562 94.3754 10.9943C94.7504 10.8281 95.0273 10.5874 95.2063 10.272C95.3896 9.95241 95.4812 9.56037 95.4812 9.09588C95.4812 8.63139 95.3896 8.23509 95.2063 7.90696C95.0231 7.57457 94.744 7.32315 94.369 7.1527C93.994 6.97798 93.5103 6.89062 92.918 6.89062H90.7447V18H88.3732ZM95.136 12.0682L98.3768 18H95.7305L92.5472 12.0682H95.136ZM102.803 18.1982C102.181 18.1982 101.621 18.0874 101.122 17.8658C100.628 17.6399 100.236 17.3075 99.946 16.8686C99.6605 16.4297 99.5178 15.8885 99.5178 15.245C99.5178 14.6911 99.62 14.233 99.8246 13.8707C100.029 13.5085 100.308 13.2188 100.662 13.0014C101.016 12.7841 101.414 12.62 101.857 12.5092C102.305 12.3942 102.767 12.3111 103.244 12.2599C103.82 12.2003 104.286 12.147 104.644 12.1001C105.002 12.049 105.262 11.9723 105.424 11.87C105.59 11.7635 105.673 11.5994 105.673 11.3778V11.3395C105.673 10.858 105.531 10.4851 105.245 10.2209C104.96 9.95668 104.548 9.82457 104.011 9.82457C103.445 9.82457 102.995 9.94815 102.663 10.1953C102.335 10.4425 102.113 10.7344 101.998 11.071L99.8374 10.7642C100.008 10.1676 100.289 9.66903 100.681 9.26847C101.073 8.86364 101.553 8.56108 102.119 8.3608C102.686 8.15625 103.313 8.05398 103.999 8.05398C104.472 8.05398 104.942 8.10938 105.411 8.22017C105.88 8.33097 106.308 8.5142 106.696 8.76989C107.084 9.02131 107.395 9.36435 107.629 9.79901C107.868 10.2337 107.987 10.777 107.987 11.429V18H105.763V16.6513H105.686C105.545 16.924 105.347 17.1797 105.092 17.4183C104.84 17.6527 104.523 17.8423 104.139 17.9872C103.76 18.1278 103.315 18.1982 102.803 18.1982ZM103.404 16.4979C103.869 16.4979 104.271 16.4062 104.612 16.223C104.953 16.0355 105.215 15.7884 105.398 15.4815C105.586 15.1747 105.68 14.8402 105.68 14.478V13.321C105.607 13.3807 105.484 13.4361 105.309 13.4872C105.138 13.5384 104.947 13.5831 104.734 13.6214C104.521 13.6598 104.31 13.6939 104.101 13.7237C103.892 13.7536 103.711 13.7791 103.558 13.8004C103.212 13.8473 102.903 13.924 102.631 14.0305C102.358 14.1371 102.143 14.2862 101.985 14.478C101.827 14.6655 101.749 14.9084 101.749 15.2067C101.749 15.6328 101.904 15.9545 102.215 16.1719C102.526 16.3892 102.923 16.4979 103.404 16.4979ZM116.866 21.6818V16.4531H116.77C116.651 16.6918 116.478 16.9453 116.252 17.2138C116.026 17.478 115.728 17.7038 115.357 17.8913C114.987 18.0788 114.52 18.1726 113.957 18.1726C113.186 18.1726 112.496 17.9744 111.886 17.5781C111.277 17.1818 110.795 16.6065 110.442 15.8523C110.088 15.098 109.911 14.1818 109.911 13.1037C109.911 12.0128 110.09 11.0923 110.448 10.3423C110.81 9.58807 111.298 9.01918 111.912 8.63565C112.526 8.24787 113.21 8.05398 113.964 8.05398C114.539 8.05398 115.012 8.15199 115.383 8.34801C115.754 8.53977 116.048 8.77202 116.265 9.04474C116.482 9.31321 116.651 9.56676 116.77 9.8054H116.911V8.18182H119.186V21.6818H116.866ZM114.603 16.2741C115.093 16.2741 115.511 16.142 115.856 15.8778C116.201 15.6094 116.463 15.2365 116.642 14.7592C116.821 14.282 116.911 13.7259 116.911 13.0909C116.911 12.456 116.821 11.9041 116.642 11.4354C116.467 10.9666 116.207 10.6023 115.862 10.3423C115.521 10.0824 115.102 9.95241 114.603 9.95241C114.087 9.95241 113.657 10.0866 113.312 10.3551C112.967 10.6236 112.707 10.9943 112.532 11.4673C112.357 11.9403 112.27 12.4815 112.27 13.0909C112.27 13.7045 112.357 14.2521 112.532 14.7337C112.711 15.2109 112.973 15.5881 113.318 15.8651C113.668 16.1378 114.096 16.2741 114.603 16.2741ZM127.822 13.8707V8.18182H130.136V18H127.892V16.255H127.79C127.568 16.8047 127.204 17.2543 126.697 17.6037C126.194 17.9531 125.574 18.1278 124.837 18.1278C124.193 18.1278 123.624 17.9851 123.13 17.6996C122.64 17.4098 122.256 16.9901 121.979 16.4403C121.702 15.8864 121.564 15.2173 121.564 14.4332V8.18182H123.878V14.0753C123.878 14.6974 124.048 15.1918 124.389 15.5582C124.73 15.9247 125.178 16.108 125.732 16.108C126.072 16.108 126.403 16.0249 126.722 15.8587C127.042 15.6925 127.304 15.4453 127.509 15.1172C127.717 14.7848 127.822 14.3693 127.822 13.8707ZM136.862 18.1918C135.877 18.1918 135.027 17.9872 134.311 17.5781C133.6 17.1648 133.052 16.581 132.669 15.8267C132.285 15.0682 132.093 14.1754 132.093 13.1484C132.093 12.1385 132.285 11.2521 132.669 10.4893C133.056 9.7223 133.597 9.12571 134.292 8.69957C134.987 8.26918 135.803 8.05398 136.74 8.05398C137.345 8.05398 137.916 8.15199 138.453 8.34801C138.994 8.53977 139.472 8.83807 139.885 9.2429C140.303 9.64773 140.631 10.1634 140.869 10.7898C141.108 11.4119 141.227 12.1534 141.227 13.0142V13.7237H133.18V12.1641H139.009C139.005 11.7209 138.909 11.3267 138.722 10.9815C138.534 10.6321 138.272 10.3572 137.936 10.157C137.603 9.95668 137.215 9.85653 136.772 9.85653C136.299 9.85653 135.884 9.97159 135.526 10.2017C135.168 10.4276 134.889 10.7259 134.688 11.0966C134.492 11.4631 134.392 11.8658 134.388 12.3047V13.6662C134.388 14.2372 134.492 14.7273 134.701 15.1364C134.91 15.5412 135.202 15.8523 135.577 16.0696C135.952 16.2827 136.391 16.3892 136.894 16.3892C137.23 16.3892 137.535 16.3423 137.808 16.2486C138.08 16.1506 138.317 16.0078 138.517 15.8203C138.718 15.6328 138.869 15.4006 138.971 15.1236L141.132 15.3665C140.995 15.9375 140.735 16.4361 140.352 16.8622C139.972 17.2841 139.487 17.6122 138.894 17.8466C138.302 18.0767 137.624 18.1918 136.862 18.1918ZM145.499 4.90909V18H143.185V4.90909H145.499ZM159.56 8.50781C159.5 7.94957 159.249 7.51491 158.806 7.20384C158.367 6.89276 157.796 6.73722 157.093 6.73722C156.598 6.73722 156.174 6.81179 155.82 6.96094C155.467 7.11008 155.196 7.3125 155.009 7.56818C154.821 7.82386 154.725 8.11577 154.721 8.44389C154.721 8.71662 154.783 8.95312 154.906 9.15341C155.034 9.35369 155.207 9.52415 155.424 9.66477C155.642 9.80114 155.882 9.91619 156.146 10.0099C156.411 10.1037 156.677 10.1825 156.945 10.2464L158.173 10.5533C158.667 10.6683 159.142 10.8239 159.598 11.0199C160.058 11.2159 160.47 11.4631 160.832 11.7614C161.198 12.0597 161.488 12.4197 161.701 12.8416C161.914 13.2635 162.021 13.7578 162.021 14.3246C162.021 15.0916 161.825 15.767 161.433 16.3509C161.041 16.9304 160.474 17.3842 159.732 17.7124C158.995 18.0362 158.102 18.1982 157.054 18.1982C156.036 18.1982 155.151 18.0405 154.401 17.7251C153.656 17.4098 153.072 16.9496 152.65 16.3445C152.232 15.7393 152.007 15.0021 151.972 14.1328H154.306C154.34 14.5888 154.48 14.968 154.727 15.2706C154.975 15.5732 155.296 15.799 155.693 15.9482C156.093 16.0973 156.541 16.1719 157.035 16.1719C157.551 16.1719 158.002 16.0952 158.39 15.9418C158.782 15.7841 159.089 15.5668 159.311 15.2898C159.532 15.0085 159.645 14.6804 159.649 14.3054C159.645 13.9645 159.545 13.6832 159.349 13.4616C159.153 13.2358 158.878 13.0483 158.524 12.8991C158.175 12.7457 157.766 12.6094 157.297 12.4901L155.808 12.1065C154.73 11.8295 153.877 11.4098 153.251 10.8473C152.629 10.2805 152.318 9.52841 152.318 8.59091C152.318 7.8196 152.526 7.14418 152.944 6.56463C153.366 5.98509 153.939 5.53551 154.664 5.21591C155.388 4.89204 156.208 4.73011 157.124 4.73011C158.053 4.73011 158.867 4.89204 159.566 5.21591C160.269 5.53551 160.821 5.98082 161.222 6.55185C161.622 7.11861 161.829 7.7706 161.842 8.50781H159.56ZM164.033 18V8.18182H166.347V18H164.033ZM165.196 6.78835C164.83 6.78835 164.514 6.6669 164.25 6.42401C163.986 6.17685 163.854 5.88068 163.854 5.53551C163.854 5.18608 163.986 4.88991 164.25 4.64702C164.514 4.39986 164.83 4.27628 165.196 4.27628C165.567 4.27628 165.882 4.39986 166.142 4.64702C166.406 4.88991 166.538 5.18608 166.538 5.53551C166.538 5.88068 166.406 6.17685 166.142 6.42401C165.882 6.6669 165.567 6.78835 165.196 6.78835ZM171.04 4.90909V18H168.726V4.90909H171.04ZM182.189 8.18182L178.693 18H176.136L172.64 8.18182H175.107L177.363 15.4751H177.466L179.728 8.18182H182.189ZM187.803 18.1918C186.819 18.1918 185.969 17.9872 185.253 17.5781C184.541 17.1648 183.993 16.581 183.61 15.8267C183.226 15.0682 183.035 14.1754 183.035 13.1484C183.035 12.1385 183.226 11.2521 183.61 10.4893C183.998 9.7223 184.539 9.12571 185.233 8.69957C185.928 8.26918 186.744 8.05398 187.682 8.05398C188.287 8.05398 188.858 8.15199 189.395 8.34801C189.936 8.53977 190.413 8.83807 190.827 9.2429C191.244 9.64773 191.572 10.1634 191.811 10.7898C192.05 11.4119 192.169 12.1534 192.169 13.0142V13.7237H184.121V12.1641H189.951C189.947 11.7209 189.851 11.3267 189.663 10.9815C189.476 10.6321 189.214 10.3572 188.877 10.157C188.545 9.95668 188.157 9.85653 187.714 9.85653C187.241 9.85653 186.825 9.97159 186.467 10.2017C186.109 10.4276 185.83 10.7259 185.63 11.0966C185.434 11.4631 185.334 11.8658 185.329 12.3047V13.6662C185.329 14.2372 185.434 14.7273 185.643 15.1364C185.851 15.5412 186.143 15.8523 186.518 16.0696C186.893 16.2827 187.332 16.3892 187.835 16.3892C188.172 16.3892 188.476 16.3423 188.749 16.2486C189.022 16.1506 189.258 16.0078 189.459 15.8203C189.659 15.6328 189.81 15.4006 189.912 15.1236L192.073 15.3665C191.937 15.9375 191.677 16.4361 191.293 16.8622C190.914 17.2841 190.428 17.6122 189.836 17.8466C189.243 18.0767 188.566 18.1918 187.803 18.1918ZM194.126 18V8.18182H196.44V18H194.126ZM195.29 6.78835C194.923 6.78835 194.608 6.6669 194.344 6.42401C194.08 6.17685 193.947 5.88068 193.947 5.53551C193.947 5.18608 194.08 4.88991 194.344 4.64702C194.608 4.39986 194.923 4.27628 195.29 4.27628C195.661 4.27628 195.976 4.39986 196.236 4.64702C196.5 4.88991 196.632 5.18608 196.632 5.53551C196.632 5.88068 196.5 6.17685 196.236 6.42401C195.976 6.6669 195.661 6.78835 195.29 6.78835ZM198.82 18V8.18182H201.063V9.81818H201.166C201.345 9.25142 201.651 8.81463 202.086 8.50781C202.525 8.19673 203.026 8.04119 203.588 8.04119C203.716 8.04119 203.859 8.04758 204.017 8.06037C204.178 8.06889 204.313 8.08381 204.419 8.10511V10.2337C204.321 10.1996 204.166 10.1697 203.953 10.1442C203.744 10.1143 203.541 10.0994 203.345 10.0994C202.923 10.0994 202.544 10.1911 202.208 10.3743C201.875 10.5533 201.613 10.8026 201.421 11.1222C201.23 11.4418 201.134 11.8104 201.134 12.228V18H198.82ZM208.606 18.1982C207.984 18.1982 207.423 18.0874 206.925 17.8658C206.431 17.6399 206.039 17.3075 205.749 16.8686C205.463 16.4297 205.32 15.8885 205.32 15.245C205.32 14.6911 205.423 14.233 205.627 13.8707C205.832 13.5085 206.111 13.2188 206.465 13.0014C206.818 12.7841 207.217 12.62 207.66 12.5092C208.107 12.3942 208.57 12.3111 209.047 12.2599C209.622 12.2003 210.089 12.147 210.447 12.1001C210.805 12.049 211.065 11.9723 211.227 11.87C211.393 11.7635 211.476 11.5994 211.476 11.3778V11.3395C211.476 10.858 211.333 10.4851 211.048 10.2209C210.762 9.95668 210.351 9.82457 209.814 9.82457C209.247 9.82457 208.798 9.94815 208.465 10.1953C208.137 10.4425 207.916 10.7344 207.801 11.071L205.64 10.7642C205.811 10.1676 206.092 9.66903 206.484 9.26847C206.876 8.86364 207.355 8.56108 207.922 8.3608C208.489 8.15625 209.115 8.05398 209.801 8.05398C210.274 8.05398 210.745 8.10938 211.214 8.22017C211.683 8.33097 212.111 8.5142 212.499 8.76989C212.887 9.02131 213.198 9.36435 213.432 9.79901C213.671 10.2337 213.79 10.777 213.79 11.429V18H211.566V16.6513H211.489C211.348 16.924 211.15 17.1797 210.894 17.4183C210.643 17.6527 210.325 17.8423 209.942 17.9872C209.563 18.1278 209.117 18.1982 208.606 18.1982ZM209.207 16.4979C209.671 16.4979 210.074 16.4062 210.415 16.223C210.756 16.0355 211.018 15.7884 211.201 15.4815C211.389 15.1747 211.482 14.8402 211.482 14.478V13.321C211.41 13.3807 211.286 13.4361 211.112 13.4872C210.941 13.5384 210.749 13.5831 210.536 13.6214C210.323 13.6598 210.112 13.6939 209.904 13.7237C209.695 13.7536 209.514 13.7791 209.36 13.8004C209.015 13.8473 208.706 13.924 208.433 14.0305C208.161 14.1371 207.945 14.2862 207.788 14.478C207.63 14.6655 207.551 14.9084 207.551 15.2067C207.551 15.6328 207.707 15.9545 208.018 16.1719C208.329 16.3892 208.725 16.4979 209.207 16.4979Z" fill="#03191E"/>
</svg>
